<?xml version="1.0" standalone="no"?>
<!DOCTYPE svg PUBLIC "-//W3C//DTD SVG 20010904//EN"
 "http://www.w3.org/TR/2001/REC-SVG-20010904/DTD/svg10.dtd">
<svg version="1.0" xmlns="http://www.w3.org/2000/svg"
 width="600.000000pt" height="600.000000pt" viewBox="0 0 600.000000 600.000000"
 preserveAspectRatio="xMidYMid meet">
<metadata>
Created by potrace 1.14, written by Peter Selinger 2001-2017
</metadata>
<g transform="translate(0.000000,600.000000) scale(0.100000,-0.100000)"
fill="#000000" stroke="none">
<path d="M2798 5995 c-1 -1 -43 -6 -93 -10 -49 -4 -92 -8 -95 -10 -3 -2 -35
-7 -70 -10 -36 -4 -67 -8 -71 -10 -3 -2 -21 -7 -40 -10 -207 -35 -486 -127
-716 -236 -847 -400 -1477 -1206 -1653 -2114 -6 -27 -12 -61 -15 -75 -3 -14
-7 -43 -10 -65 -3 -22 -8 -56 -10 -75 -16 -115 -20 -187 -19 -380 0 -233 4
-302 34 -485 29 -179 98 -444 139 -540 5 -11 19 -47 32 -80 12 -33 50 -118 84
-190 214 -453 555 -857 971 -1152 323 -229 688 -392 1069 -478 119 -26 131
-29 215 -40 25 -3 54 -8 65 -10 128 -26 641 -26 771 -1 12 2 45 7 75 11 30 4
56 8 59 10 3 2 27 6 54 9 27 4 52 9 56 11 4 2 17 6 31 9 236 49 537 162 773
292 728 398 1255 1071 1465 1866 47 177 69 299 90 508 9 83 7 496 -2 555 -3
17 -9 59 -13 95 -4 36 -8 67 -9 70 -1 3 -5 28 -9 55 -20 124 -97 418 -136 510
-4 11 -18 47 -31 80 -12 33 -48 115 -79 181 -420 893 -1289 1539 -2257 1679
-54 7 -118 17 -143 20 -46 7 -505 16 -512 10z m462 -329 c36 -4 76 -9 90 -11
14 -2 43 -7 65 -10 95 -13 190 -34 325 -72 592 -168 1113 -544 1472 -1063 215
-312 376 -717 434 -1095 22 -142 30 -275 28 -450 -1 -110 -4 -213 -7 -230 -3
-16 -9 -55 -12 -85 -5 -44 -37 -212 -60 -315 -26 -118 -111 -347 -184 -499
-134 -277 -292 -499 -520 -727 -309 -309 -634 -510 -1060 -656 -24 -8 -51 -17
-60 -19 -103 -27 -211 -54 -231 -58 -116 -20 -228 -37 -295 -43 -151 -14 -525
-6 -595 12 -8 2 -35 6 -60 9 -53 7 -60 8 -181 35 -356 78 -710 241 -1018 471
-126 95 -354 312 -454 433 -341 412 -558 937 -604 1462 -9 112 -9 384 0 490
57 617 321 1185 760 1630 75 77 156 154 180 172 23 17 51 40 62 50 38 36 221
160 315 215 78 46 204 109 315 159 135 60 327 117 555 164 172 36 542 51 740
31z"/>
<path d="M2683 5443 c5 -18 82 -258 109 -338 l13 -40 70 0 69 0 26 107 c25
103 40 142 40 102 0 -10 10 -63 22 -117 l23 -98 69 3 70 3 56 170 c31 94 60
182 63 198 l7 27 -65 0 c-44 0 -67 -4 -70 -12 -2 -7 -13 -58 -26 -113 -28
-126 -34 -139 -43 -89 -4 22 -17 78 -28 127 l-20 87 -64 0 -63 0 -10 -37 c-8
-32 -31 -129 -37 -155 -1 -5 -2 -17 -3 -28 -3 -48 -19 -11 -45 100 l-27 120
-71 0 c-62 0 -70 -2 -65 -17z"/>
<path d="M2997 4895 c-3 -11 -18 -69 -32 -130 -14 -60 -47 -193 -72 -295 -25
-102 -47 -194 -49 -205 -3 -11 -31 -125 -62 -254 l-58 -234 51 -46 c27 -25 52
-48 55 -51 3 -3 69 -63 146 -132 l142 -127 122 0 c117 -1 121 0 116 19 -11 37
-15 55 -20 80 -3 14 -30 131 -61 260 -31 129 -76 318 -100 420 -38 160 -92
384 -154 645 -12 50 -19 64 -24 50z"/>
<path d="M1559 4759 c6 -8 102 -162 213 -344 111 -181 376 -616 590 -965 431
-704 366 -615 662 -894 71 -66 151 -141 177 -166 26 -25 73 -69 106 -99 46
-43 174 -163 352 -331 9 -8 50 -46 91 -85 42 -38 136 -126 209 -195 73 -69
147 -138 165 -154 69 -64 185 -173 247 -233 37 -35 70 -63 73 -63 4 0 -6 19
-22 43 -26 38 -231 370 -271 439 -9 15 -76 126 -150 245 -73 120 -190 310
-259 423 -69 113 -135 221 -147 240 -13 19 -97 157 -189 306 l-165 271 -123
114 c-67 63 -134 125 -148 139 -23 22 -236 221 -295 275 -12 11 -59 56 -106
100 -46 44 -145 137 -219 206 -74 70 -154 144 -176 165 -62 58 -282 264 -324
304 -21 19 -93 87 -160 150 -107 101 -168 151 -131 109z m1529 -1639 c40 -32
54 -58 57 -108 5 -74 -32 -130 -101 -152 -72 -24 -151 12 -179 82 -20 51 -19
81 5 127 38 76 152 102 218 51z"/>
<path d="M3487 3352 c-2 -4 -5 -87 -6 -184 l-2 -177 96 -151 c54 -82 101 -150
106 -150 8 0 135 30 409 96 80 20 156 38 170 40 14 3 68 16 120 29 52 13 106
26 120 29 14 3 34 7 45 10 17 4 177 42 210 50 6 2 56 13 112 26 56 13 101 25
100 27 -3 3 -114 32 -144 38 -10 1 -139 33 -288 70 -148 36 -277 68 -285 70
-8 2 -37 9 -65 15 -27 6 -57 13 -65 15 -8 2 -62 15 -120 30 -58 14 -114 28
-126 30 -11 3 -94 23 -185 45 -90 22 -172 42 -181 44 -10 2 -19 1 -21 -2z"/>
<path d="M2175 3264 c-77 -18 -302 -72 -500 -119 -198 -47 -368 -88 -377 -90
-10 -3 -28 -7 -40 -10 -22 -4 -77 -17 -88 -20 -3 -1 -22 -5 -44 -10 -43 -9
-35 -18 29 -30 22 -5 45 -9 50 -11 27 -8 308 -77 360 -89 59 -13 462 -112 820
-200 98 -24 181 -43 182 -41 1 1 4 65 5 142 l3 139 -120 188 c-66 103 -124
186 -130 186 -5 -1 -73 -16 -150 -35z"/>
<path d="M689 3153 c-11 -27 -42 -100 -69 -163 -27 -63 -56 -132 -64 -152
l-16 -38 68 0 c65 0 68 1 78 28 10 26 13 28 75 26 87 -2 84 -1 97 -29 11 -23
17 -25 81 -25 l69 0 -81 200 -81 200 -69 0 -68 0 -20 -47z m121 -195 c0 -5
-18 -8 -40 -8 l-39 0 15 43 c8 23 17 49 20 57 4 10 13 -3 25 -35 10 -27 19
-53 19 -57z"/>
<path d="M5060 2999 l0 -201 128 3 c117 4 131 6 174 31 87 52 118 169 70 265
-41 78 -103 103 -264 103 l-108 0 0 -201z m238 65 c40 -46 22 -136 -31 -153
-18 -6 -42 -10 -54 -9 -22 2 -23 6 -23 94 0 64 4 94 13 98 24 10 72 -4 95 -30z"/>
<path d="M2646 2553 c3 -15 17 -73 31 -128 14 -55 27 -111 29 -124 3 -13 21
-90 40 -170 19 -80 41 -173 49 -206 8 -33 37 -152 64 -265 27 -113 68 -288 92
-389 30 -125 46 -177 51 -165 4 11 37 141 72 289 36 149 94 389 130 535 36
146 66 273 66 284 0 10 -10 27 -22 38 -13 11 -39 34 -58 51 -19 18 -96 87
-171 153 l-135 122 -122 1 -123 2 7 -28z"/>
<path d="M2950 943 c-78 -28 -113 -71 -108 -132 4 -51 36 -79 123 -109 52 -18
80 -32 80 -42 0 -23 -76 -15 -135 15 l-50 25 -20 -41 c-12 -22 -19 -47 -16
-55 9 -25 97 -55 170 -59 71 -5 137 14 162 46 21 26 31 74 23 105 -12 44 -47
71 -125 97 -44 15 -70 30 -72 40 -5 24 31 21 100 -7 l56 -23 23 49 c14 29 19
52 13 57 -28 28 -179 50 -224 34z"/>
</g>
</svg>
